<svg xmlns="http://www.w3.org/2000/svg" width="53.531" height="72" viewBox="0 0 53.531 72">
  <defs>
    <style>
      .cls-1 {
        fill: #f6f6f6;
        fill-rule: evenodd;
      }
    </style>
  </defs>
  <path id="logo.svg" class="cls-1" d="M274.714,88.981A46.989,46.989,0,0,1,271.3,103.7c-0.623,1.416-1.756,2.767-2.279,4.3h-0.228v-1.132c0.428-.665.219-1.575,0.456-2.491,1.128-4.357,1.213-10.17-.684-13.811-3.24-6.221-9.728-4.129-16.181-6.793a12.425,12.425,0,0,1-5.7-5.434l-1.368-3.849A14.911,14.911,0,0,1,246,66.339c3.107-8.131,10.872-11.709,20.284-7.245V58.415c-0.807-1.1-.545-2.733-0.912-4.3-0.985-4.219-1.744-18.067,2.963-18.113,1.277,0.926,3.731.885,3.875,2.944a1.666,1.666,0,0,0-.456,1.358h0.228V40.075c0.981-1.03,1.25-3.371,2.963-3.623,1.368,1.22,3.683,1.463,4.1,3.623a17.49,17.49,0,0,0-2.735,5.887h0.456c1.428-1.877,7.312-7.251,10.028-6.793a14.113,14.113,0,0,1,2.051,4.3c-1.435.51-2.095,1.9-3.191,2.717-4,3-7.231,7.374-9.8,11.774h0.684c1.569-1.22,7.973-1.811,10.712-1.132,7.222,1.792,9.252,4.271,10.939,11.547a13.388,13.388,0,0,1,.228,4.755c-2.183,9.442-6.79,14.209-16.409,16.3C279.436,89.993,276.873,89.1,274.714,88.981Z" transform="translate(-245 -36)"/>
</svg>
